#!OML:ASF E:\Style4\Style4.ASF
:FULLY-SPECIFIED
:DEGREES
3008
root 0.0917974 17.811 -1.80017 15.9001 -3.83737 1.56696
lowerback 16.1388 2.60605 0.157361
upperback 13.1661 3.40034 -1.3673
thorax 5.17823 1.77484 -1.91677
lowerneck 7.11725 -3.15236 -5.7671
upperneck -3.70482 -4.36608 7.27876
head -2.15807 -2.31248 3.60249
rclavicle 7.15625e-015 -1.19271e-015
rhumerus 31.8775 33.5953 -49.082
rradius 106.773
rwrist -53.7931
rhand -40.0441 20.5669
rfingers 7.12502
rthumb -13.0103 -9.00742
lclavicle 7.15625e-015 -1.19271e-015
lhumerus 38.1555 -37.884 55.3761
lradius 106.491
lwrist 59.1861
lhand -34.9371 42.0223
lfingers 7.12502
lthumb -8.08407 71.8476
rfemur -37.7359 -2.26185 18.5836
rtibia 35.4517
rfoot -12.6497 -16.9999
rtoes -8.82035
lfemur -36.0427 2.70313 -20.839
ltibia 34.3907
lfoot -14.6367 13.4183
ltoes -15.817
3009
root 0.0681476 17.8141 -1.80376 15.8863 -3.78316 1.53806
lowerback 16.0551 2.64961 0.0308003
upperback 13.1998 3.44493 -1.3377
thorax 5.25134 1.78683 -1.81481
lowerneck 7.18743 -3.15807 -5.74643
upperneck -3.7406 -4.37242 7.29526
head -2.18266 -2.31758 3.60803
rclavicle -4.01545e-014 1.98785e-014
rhumerus 32.2242 33.6524 -48.6462
rradius 106.941
rwrist -53.4276
rhand -39.7244 20.1641
rfingers 7.12502
rthumb -12.7021 -9.42959
lclavicle -4.01545e-014 1.98785e-014
lhumerus 37.8657 -37.7829 55.7852
lradius 106.828
lwrist 58.8947
lhand -35.2129 42.3832
lfingers 7.12502
lthumb -8.35027 72.1981
rfemur -37.6341 -2.22449 18.6896
rtibia 35.2869
rfoot -12.6471 -17.0487
rtoes -8.49064
lfemur -35.9999 2.63066 -20.6898
ltibia 34.3326
lfoot -14.5334 13.358
ltoes -15.3323
3010
root 0.0422935 17.8178 -1.81085 15.9271 -3.6887 1.37191
lowerback 15.9875 2.65876 0.065605
upperback 13.1808 3.46127 -1.30582
thorax 5.26575 1.79585 -1.79941
lowerneck 7.27389 -3.13333 -5.84832
upperneck -3.73893 -4.34626 7.42215
head -2.19664 -2.3081 3.67423
rclavicle -1.03368e-014 4.37326e-015
rhumerus 32.5697 33.743 -48.2712
rradius 107.087
rwrist -53.0924
rhand -39.4637 19.9728
rfingers 7.12502
rthumb -12.4507 -9.63637
lclavicle -1.03368e-014 4.37326e-015
lhumerus 37.5165 -37.6022 56.2069
lradius 107.153
lwrist 58.6547
lhand -34.8786 43.476
lfingers 7.12502
lthumb -8.02759 73.3036
rfemur -37.5703 -2.13977 18.9562
rtibia 35.0961
rfoot -12.5687 -17.1313
rtoes -8.38141
lfemur -36.0438 2.64304 -20.4003
ltibia 34.2799
lfoot -14.4227 13.285
ltoes -14.9225
3011
root 0.0187878 17.8224 -1.81598 15.9696 -3.6161 1.17988
lowerback 16.0176 2.68145 0.468349
upperback 13.1232 3.53737 -1.48312
thorax 5.22867 1.87275 -2.22266
lowerneck 7.29905 -3.18408 -5.67965
upperneck -3.7088 -4.39017 7.61258
head -2.18773 -2.33883 3.70991
rclavicle -8.74653e-015 -7.55382e-015
rhumerus 32.7033 33.6668 -48.2282
rradius 107.143
rwrist -52.8848
rhand -39.1945 20.087
rfingers 7.12502
rthumb -12.1912 -9.5377
lclavicle -8.74653e-015 -7.55382e-015
lhumerus 37.4511 -37.6245 56.2239
lradius 107.46
lwrist 58.6068
lhand -34.1399 43.8019
lfingers 7.12502
lthumb -7.31463 73.6555
rfemur -37.493 -2.0704 19.2476
rtibia 34.8882
rfoot -12.537 -17.1628
rtoes -7.99047
lfemur -36.0638 2.68734 -20.097
ltibia 34.2067
lfoot -14.3023 13.3007
ltoes -15.3509
3012
root -0.000209298 17.8269 -1.81771 16.0021 -3.56978 1.01819
lowerback 16.0168 2.71207 0.938328
upperback 13.0894 3.63274 -1.70167
thorax 5.24693 1.96694 -2.72742
lowerneck 7.31986 -3.24518 -5.42105
upperneck -3.72558 -4.43939 7.75807
head -2.19548 -2.37237 3.71404
rclavicle 3.29983e-014 -1.98785e-014
rhumerus 32.8716 33.5217 -48.1377
rradius 107.243
rwrist -52.892
rhand -38.937 20.0361
rfingers 7.12502
rthumb -11.9429 -9.60324
lclavicle 3.29983e-014 -1.98785e-014
lhumerus 37.4105 -37.7112 56.2228
lradius 107.737
lwrist 58.4593
lhand -33.8491 43.4163
lfingers 7.12502
lthumb -7.03394 73.2795
rfemur -37.4224 -2.11153 19.5265
rtibia 34.7049
rfoot -12.4391 -17.1218
rtoes -7.96096
lfemur -36.0184 2.63486 -19.8119
ltibia 34.082
lfoot -14.3094 13.3844
ltoes -15.2687
3013
root -0.0219417 17.8325 -1.82256 15.9419 -3.57598 0.996925
lowerback 16.1218 2.73071 1.15522
upperback 13.0718 3.68454 -1.91619
thorax 5.20948 2.02013 -3.08783
lowerneck 7.30904 -3.2513 -5.26795
upperneck -3.68365 -4.42546 7.92698
head -2.18048 -2.37264 3.74191
rclavicle -2.5842e-014 1.8487e-014
rhumerus 33.1824 33.4751 -47.9249
rradius 107.361
rwrist -52.8726
rhand -38.5516 20.0126
rfingers 7.12502
rthumb -11.5713 -9.64801
lclavicle -2.5842e-014 1.8487e-014
lhumerus 37.2851 -37.6356 56.2956
lradius 107.918
lwrist 58.1026
lhand -34.5028 42.9313
lfingers 7.12502
lthumb -7.6649 72.7723
rfemur -37.2964 -2.12747 19.6445
rtibia 34.5658
rfoot -12.3239 -17.1154
rtoes -7.94356
lfemur -35.8511 2.60148 -19.6827
ltibia 33.8922
lfoot -14.3448 13.4264
ltoes -14.8224
3014
root -0.0446224 17.8384 -1.82675 15.8594 -3.62571 1.27485
lowerback 16.0066 2.82769 0.568381
upperback 13.1559 3.74798 -1.83358
thorax 5.31841 2.00582 -2.67077
lowerneck 7.34962 -3.23504 -5.43343
upperneck -3.75433 -4.41918 7.9092
head -2.20965 -2.36748 3.77091
rclavicle -2.14687e-014 3.51849e-014
rhumerus 33.9029 33.5653 -47.0105
rradius 107.47
rwrist -52.9357
rhand -38.1323 19.9934
rfingers 7.12502
rthumb -11.1668 -9.68946
lclavicle -2.14687e-014 3.51849e-014
lhumerus 37.0415 -37.2179 56.9023
lradius 107.994
lwrist 57.6489
lhand -35.391 42.4657
lfingers 7.12502
lthumb -8.52215 72.2738
rfemur -37.1998 -2.18612 19.4173
rtibia 34.4907
rfoot -12.3122 -17.0647
rtoes -7.73765
lfemur -35.6316 2.54114 -19.9055
ltibia 33.6473
lfoot -14.2559 13.5261
ltoes -15.4227
3015
root -0.0663894 17.8437 -1.82745 15.7927 -3.59324 1.50313
lowerback 15.9692 2.89701 0.48148
upperback 13.1633 3.83463 -1.98656
thorax 5.3583 2.05212 -2.79146
lowerneck 7.37708 -3.30333 -5.41705
upperneck -3.72717 -4.50089 8.10604
head -2.19652 -2.41487 3.83958
rclavicle -7.15625e-015 1.78906e-014
rhumerus 34.3026 33.4362 -46.5725
rradius 107.548
rwrist -53.1198
rhand -37.8586 19.7682
rfingers 7.12502
rthumb -10.9029 -9.92874
lclavicle -7.15625e-015 1.78906e-014
lhumerus 37.05 -37.1173 57.0281
lradius 108.093
lwrist 57.2655
lhand -35.9225 42.2193
lfingers 7.12502
lthumb -9.03503 72.0058
rfemur -37.1045 -2.33097 19.273
rtibia 34.4482
rfoot -12.3193 -17.0371
rtoes -7.83528
lfemur -35.406 2.46132 -20.0704
ltibia 33.3868
lfoot -14.1034 13.5622
ltoes -16.2176
3016
root -0.0899046 17.8481 -1.83185 15.7656 -3.55449 1.59607
lowerback 15.8209 2.99207 0.412181
upperback 13.2257 3.95639 -2.02405
thorax 5.51189 2.11204 -2.79514
lowerneck 7.39982 -3.36035 -5.47444
upperneck -3.72272 -4.57575 8.26244
head -2.18983 -2.45648 3.90868
rclavicle 3.10104e-014 -3.75703e-014
rhumerus 34.8275 33.2376 -45.898
rradius 107.68
rwrist -53.4133
rhand -37.8718 19.559
rfingers 7.12502
rthumb -10.9156 -10.1372
lclavicle 3.10104e-014 -3.75703e-014
lhumerus 37.0345 -36.9036 57.3265
lradius 108.241
lwrist 56.8951
lhand -36.1054 42.294
lfingers 7.12502
lthumb -9.21146 72.0728
rfemur -37.0666 -2.38281 19.2696
rtibia 34.4321
rfoot -12.3603 -16.9996
rtoes -7.85023
lfemur -35.2398 2.4087 -20.0687
ltibia 33.1295
lfoot -14.0008 13.517
ltoes -15.749
3017
root -0.114809 17.8503 -1.83911 15.7813 -3.50604 1.63692
lowerback 15.7236 3.06915 0.366274
upperback 13.2069 4.05545 -2.06769
thorax 5.54817 2.16096 -2.82083
lowerneck 7.52131 -3.39381 -5.3959
upperneck -3.75717 -4.61314 8.29906
head -2.22186 -2.47974 3.91322
rclavicle 2.5842e-014 -3.77691e-014
rhumerus 35.3344 33.1621 -45.2598
rradius 107.787
rwrist -53.6168
rhand -38.0219 19.4771
rfingers 7.12502
rthumb -11.0604 -10.2114
lclavicle 2.5842e-014 -3.77691e-014
lhumerus 36.8669 -36.6726 57.6609
lradius 108.459
lwrist 56.6005
lhand -35.9916 42.4295
lfingers 7.12502
lthumb -9.10173 72.2132
rfemur -37.0608 -2.39811 19.3227
rtibia 34.37
rfoot -12.3687 -16.9889
rtoes -7.54956
lfemur -35.1867 2.34877 -19.9966
ltibia 32.9492
lfoot -13.9723 13.4491
ltoes -14.9282
3018
root -0.139391 17.8544 -1.84561 15.781 -3.45112 1.70732
lowerback 16.0301 3.13452 0.0996002
upperback 12.9126 4.10087 -2.02698
thorax 5.03528 2.15642 -2.66042
lowerneck 7.64397 -3.40241 -5.33316
upperneck -3.48105 -4.64065 8.16946
head -2.15358 -2.49008 3.85204
rclavicle -6.75868e-015 4.96962e-015
rhumerus 35.6602 33.5294 -44.7496
rradius 107.808
rwrist -53.7535
rhand -37.8272 19.4003
rfingers 7.12502
rthumb -10.8726 -10.2982
lclavicle -6.75868e-015 4.96962e-015
lhumerus 36.2232 -36.5001 58.3402
lradius 108.571
lwrist 56.1425
lhand -35.8252 42.5862
lfingers 7.12502
lthumb -8.94112 72.3768
rfemur -37.006 -2.40911 19.3242
rtibia 34.2603
rfoot -12.5088 -16.9166
rtoes -6.25461
lfemur -35.149 2.30518 -19.9691
ltibia 32.826
lfoot -13.8401 13.4492
ltoes -15.0308
3019
root -0.162691 17.8566 -1.85093 15.8556 -3.35422 1.52495
lowerback 16.0214 3.14251 0.153682
upperback 12.8313 4.11424 -1.92962
thorax 4.94463 2.1607 -2.59081
lowerneck 7.46787 -3.38117 -5.46137
upperneck -3.28955 -4.62948 8.13222
head -2.05615 -2.47719 3.85072
rclavicle 1.59028e-014 -1.72943e-014
rhumerus 36.3882 33.6701 -44.0386
rradius 107.771
rwrist -53.8621
rhand -37.5403 19.3153
rfingers 7.12502
rthumb -10.5959 -10.3976
lclavicle 1.59028e-014 -1.72943e-014
lhumerus 35.9335 -36.0414 58.8327
lradius 108.584
lwrist 55.66
lhand -35.9064 42.7515
lfingers 7.12502
lthumb -9.01952 72.5387
rfemur -37.0367 -2.44361 19.6407
rtibia 34.1751
rfoot -12.5539 -16.8856
rtoes -5.69206
lfemur -35.1834 2.33538 -19.6778
ltibia 32.697
lfoot -13.6646 13.4342
ltoes -15.2676
3020
root -0.187934 17.8598 -1.85587 15.9158 -3.20985 1.3024
lowerback 15.8831 3.0578 0.212563
upperback 12.8589 4.01162 -1.81139
thorax 5.03602 2.10795 -2.47846
lowerneck 7.28051 -3.26271 -5.74396
upperneck -3.23546 -4.49466 8.12975
head -2.00913 -2.40262 3.89226
rclavicle -3.97569e-014 1.19271e-014
rhumerus 37.5147 33.8637 -43.1107
rradius 107.741
rwrist -54.0794
rhand -37.3899 19.4703
rfingers 7.12502
rthumb -10.4508 -10.25
lclavicle -3.97569e-014 1.19271e-014
lhumerus 35.6067 -35.3239 59.2657
lradius 108.679
lwrist 55.3036
lhand -36.1414 43.079
lfingers 7.12502
lthumb -9.24625 72.8562
rfemur -37.0417 -2.42441 19.9971
rtibia 34.1299
rfoot -12.534 -16.9576
rtoes -5.68657
lfemur -35.1802 2.29536 -19.307
ltibia 32.5493
lfoot -13.5712 13.3755
ltoes -15.0077
3021
root -0.210007 17.8631 -1.86086 15.8411 -3.16176 1.58283
lowerback 15.8157 3.02892 -0.0322992
upperback 12.9177 3.9538 -1.91045
thorax 5.12483 2.06789 -2.43518
lowerneck 7.35516 -3.20045 -5.9477
upperneck -3.38394 -4.4213 8.2647
head -2.07278 -2.36937 3.98479
rclavicle -2.66371e-014 2.3059e-014
rhumerus 38.4378 33.9085 -42.3936
rradius 107.743
rwrist -54.3788
rhand -37.2787 19.5577
rfingers 7.12502
rthumb -10.3435 -10.1679
lclavicle -2.66371e-014 2.3059e-014
lhumerus 35.545 -34.7823 59.4452
lradius 108.833
lwrist 55.0912
lhand -36.4626 43.3525
lfingers 7.12502
lthumb -9.55615 73.1158
rfemur -36.9848 -2.53573 19.7792
rtibia 34.1485
rfoot -12.5759 -16.9339
rtoes -5.63095
lfemur -35.0188 2.15723 -19.5079
ltibia 32.3796
lfoot -13.584 13.3713
ltoes -14.829
3022
root -0.232797 17.8646 -1.86625 15.7773 -3.16026 1.8299
lowerback 15.759 3.09662 -0.12227
upperback 12.9743 4.03929 -2.06169
thorax 5.22928 2.11365 -2.54935
lowerneck 7.42554 -3.24177 -6.02209
upperneck -3.53561 -4.46781 8.51512
head -2.12743 -2.40118 4.09684
rclavicle -3.18055e-015 2.98177e-015
rhumerus 39.0429 33.6614 -41.9155
rradius 107.707
rwrist -54.6121
rhand -37.0339 19.5357
rfingers 7.12502
rthumb -10.1074 -10.2015
lclavicle -3.18055e-015 2.98177e-015
lhumerus 35.7193 -34.4483 59.479
lradius 108.913
lwrist 54.9834
lhand -36.6493 43.1288
lfingers 7.12502
lthumb -9.73625 72.8838
rfemur -36.9885 -2.57891 19.5856
rtibia 34.2238
rfoot -12.5781 -16.9499
rtoes -5.95896
lfemur -34.8445 2.06689 -19.6842
ltibia 32.1747
lfoot -13.533 13.419
ltoes -14.86
